<svg width="640" height="420" viewBox="0 0 640 420" fill="none" xmlns="http://www.w3.org/2000/svg">
  <defs>
    <linearGradient id="bg" x1="40" y1="40" x2="600" y2="380" gradientUnits="userSpaceOnUse">
      <stop stop-color="#10b981" stop-opacity="0.25"/>
      <stop offset="1" stop-color="#0ea5e9" stop-opacity="0.12"/>
    </linearGradient>
    <radialGradient id="sun" cx="0" cy="0" r="1" gradientUnits="userSpaceOnUse" gradientTransform="translate(510 110) rotate(120) scale(220 180)">
      <stop stop-color="#fbbf24" stop-opacity="0.35"/>
      <stop offset="1" stop-color="#fbbf24" stop-opacity="0"/>
    </radialGradient>
  </defs>
  <rect x="0.5" y="0.5" width="639" height="419" rx="28" fill="url(#bg)" stroke="#e5e7eb"/>
  <rect x="0.5" y="0.5" width="639" height="419" rx="28" fill="url(#sun)"/>
  <!-- simple animal silhouette (non-specific mammal) -->
  <g opacity="0.75" fill="#0f172a">
    <path d="M176 272c28-42 72-64 132-64 44 0 78 10 110 30 12 8 22 20 26 34 6 22-6 42-32 50-18 6-40 10-62 10H250c-26 0-56-6-74-22-12-10-12-24 0-38z"/>
    <path d="M238 322c-14 20-22 34-24 44-2 10 6 18 18 18 14 0 22-8 26-22 2-8 4-22 6-40h-26z" opacity="0.85"/>
    <path d="M392 328c4 18 6 30 10 38 6 12 14 18 26 18 12 0 20-10 18-20-2-10-10-22-26-40h-28z" opacity="0.85"/>
    <circle cx="430" cy="250" r="6" fill="#0f172a"/>
  </g>
  <g opacity="0.25" stroke="#0f172a" stroke-width="3">
    <path d="M98 308c64-38 140-58 226-58 92 0 164 18 214 52" stroke-linecap="round"/>
    <path d="M92 178c60-22 122-34 190-34 108 0 202 28 282 78" stroke-linecap="round"/>
  </g>
</svg>

