<svg width="640" height="420" viewBox="0 0 640 420" fill="none" xmlns="http://www.w3.org/2000/svg">
  <defs>
    <linearGradient id="bg" x1="40" y1="60" x2="600" y2="380" gradientUnits="userSpaceOnUse">
      <stop stop-color="#22c55e" stop-opacity="0.22"/>
      <stop offset="1" stop-color="#10b981" stop-opacity="0.12"/>
    </linearGradient>
  </defs>
  <rect x="0.5" y="0.5" width="639" height="419" rx="28" fill="url(#bg)" stroke="#e5e7eb"/>
  <!-- abstract komodo/lizard silhouette -->
  <g opacity="0.78" fill="#0f172a">
    <path d="M146 272c84-56 160-74 228-54 40 12 70 34 90 66 10 16 6 34-12 44-30 18-68 26-114 26H252c-52 0-92-14-120-42-12-12-10-26 14-40z"/>
    <path d="M430 272c26-18 54-22 84-12 18 6 28 18 30 36-22-12-46-12-70 0 10-10 8-16-6-20-12-4-24-2-38 6z" opacity="0.9"/>
    <circle cx="360" cy="250" r="6"/>
  </g>
  <g opacity="0.25" stroke="#0f172a" stroke-width="3">
    <path d="M92 318c62-36 136-56 222-60 112-6 206 12 282 52" stroke-linecap="round"/>
    <path d="M120 164c74-28 150-38 228-30" stroke-linecap="round"/>
  </g>
</svg>

