<svg width="512" height="512" viewBox="0 0 512 512" fill="none" xmlns="http://www.w3.org/2000/svg">
  <defs>
    <linearGradient id="g" x1="60" y1="70" x2="450" y2="470" gradientUnits="userSpaceOnUse">
      <stop stop-color="#10b981" stop-opacity="0.45"/>
      <stop offset="1" stop-color="#0ea5e9" stop-opacity="0.25"/>
    </linearGradient>
    <filter id="blur" x="-20%" y="-20%" width="140%" height="140%">
      <feGaussianBlur stdDeviation="8"/>
    </filter>
  </defs>
  <!-- abstract island + wildlife mark, intentionally non-literal -->
  <path d="M108 324c44-74 116-136 208-156 56-12 86 10 96 40 10 30-2 78-46 114-58 48-146 64-258 32z" fill="url(#g)" filter="url(#blur)"/>
  <path d="M122 332c58 20 122 22 192 10" stroke="#0f766e" stroke-opacity="0.35" stroke-width="10" stroke-linecap="round"/>
  <path d="M190 248c18-18 40-30 66-36" stroke="#0f766e" stroke-opacity="0.25" stroke-width="10" stroke-linecap="round"/>
  <path d="M300 214c26 0 46 8 58 22" stroke="#0f766e" stroke-opacity="0.25" stroke-width="10" stroke-linecap="round"/>
</svg>
