<svg width="800" height="520" viewBox="0 0 800 520" fill="none" xmlns="http://www.w3.org/2000/svg">
  <!-- Subtle line-art wildlife pattern (abstract; not copyrighted photos) -->
  <g opacity="0.18" stroke="#0f172a" stroke-width="2">
    <!-- turtle -->
    <path d="M120 190c30-28 78-28 108 0 18 17 18 43 0 60-30 28-78 28-108 0-18-17-18-43 0-60z"/>
    <path d="M108 220c-12 4-20 14-20 26M236 220c12 4 20 14 20 26"/>
    <!-- bird -->
    <path d="M540 140c44 0 76 36 92 64-22-8-44-10-66 2 18-28 10-52-26-66z"/>
    <path d="M540 140c-44 0-76 36-92 64 22-8 44-10 66 2-18-28-10-52 26-66z"/>
    <!-- leaf -->
    <path d="M380 320c40-60 120-60 160 0-40 60-120 60-160 0z"/>
    <path d="M460 260v120"/>
    <!-- fish -->
    <path d="M640 360c42-28 96-18 132 20-36 38-90 48-132 20l-40 20v-80l40 20z"/>
    <circle cx="700" cy="380" r="6" fill="#0f172a" stroke="none"/>
    <!-- lizard/komodo abstract -->
    <path d="M160 380c60-18 110-12 150 18 22 16 52 16 88 0"/>
    <path d="M398 398c20-16 38-20 56-12"/>
  </g>
  <g opacity="0.14">
    <circle cx="170" cy="110" r="62" fill="#10b981"/>
    <circle cx="650" cy="120" r="74" fill="#0ea5e9"/>
    <circle cx="460" cy="420" r="90" fill="#22c55e"/>
  </g>
</svg>

